<mxfile host="www.draw.io" modified="2020-01-01T03:19:43.755Z" agent="Mozilla/5.0 (Macintosh; Intel Mac OS X 10_14_5) AppleWebKit/537.36 (KHTML, like Gecko) Chrome/79.0.3945.88 Safari/537.36" etag="hGRqaVC4camD4k7PEK-e" version="12.4.8" type="github">
  <diagram id="KawmassBpv_Ilab8Jaae" name="Page-1">
    <mxGraphModel dx="1606" dy="946" grid="1" gridSize="10" guides="1" tooltips="1" connect="1" arrows="1" fold="1" page="1" pageScale="1" pageWidth="827" pageHeight="1169" math="0" shadow="0">
      <root>
        <mxCell id="0"/>
        <mxCell id="1" parent="0"/>
        <mxCell id="zqcALFMYTZyd8DlzZJDv-2" value="&lt;font style=&quot;font-size: 24px&quot;&gt;ER diagram&lt;/font&gt;" style="text;html=1;strokeColor=none;fillColor=none;align=center;verticalAlign=middle;whiteSpace=wrap;rounded=0;" vertex="1" parent="1">
          <mxGeometry x="180" y="330" width="140" height="60" as="geometry"/>
        </mxCell>
      </root>
    </mxGraphModel>
  </diagram>
</mxfile>
